<svg xmlns="http://www.w3.org/2000/svg" viewBox="0 0 420 96" role="img" aria-labelledby="title desc">
  <title id="title">ANME LearnOps logo</title>
  <desc id="desc">ANME LearnOps horizontal logo for the Moodle-connected training business platform.</desc>
  <defs>
    <linearGradient id="bg" x1="14" y1="8" x2="84" y2="88" gradientUnits="userSpaceOnUse">
      <stop stop-color="#1d4ed8"/>
      <stop offset=".54" stop-color="#4f46e5"/>
      <stop offset="1" stop-color="#0f172a"/>
    </linearGradient>
    <linearGradient id="spark" x1="58" y1="20" x2="80" y2="46" gradientUnits="userSpaceOnUse">
      <stop stop-color="#fbbf24"/>
      <stop offset="1" stop-color="#f97316"/>
    </linearGradient>
  </defs>
  <rect x="0" y="0" width="96" height="96" rx="28" fill="url(#bg)"/>
  <circle cx="70" cy="22" r="16" fill="#60a5fa" opacity=".18"/>
  <circle cx="22" cy="74" r="22" fill="#f97316" opacity=".14"/>
  <path d="M24 34.2c0-3.4 2.9-6.1 6.3-5.7 6.9.8 13.2 3.1 17.7 7.1v33.7c-5.2-4.6-11.5-7-18.6-7.7A5.9 5.9 0 0 1 24 55.8V34.2Z" fill="#ffffff" opacity=".94"/>
  <path d="M72 34.2c0-3.4-2.9-6.1-6.3-5.7-6.9.8-13.2 3.1-17.7 7.1v33.7c5.2-4.6 11.5-7 18.6-7.7a5.9 5.9 0 0 0 5.4-5.8V34.2Z" fill="#dbeafe"/>
  <path d="M34 42.5c4.5.9 8 2.4 10.8 4.6" stroke="#1d4ed8" stroke-width="3.2" stroke-linecap="round" opacity=".9"/>
  <path d="M62 40 50.5 51.6l-6.2-6.1L32 58" stroke="#1d4ed8" stroke-width="4.3" stroke-linecap="round" stroke-linejoin="round"/>
  <path d="M63.8 29.2 77 22l-5.3 14.3 12.1 8.2-14.8.6-4.4 14-5.2-13.7-14.7-.2 11.6-8.9-4.3-14.1 11.8 7Z" fill="url(#spark)"/>
  <text x="122" y="47" fill="#0f172a" font-family="Inter, ui-sans-serif, system-ui, -apple-system, BlinkMacSystemFont, 'Segoe UI', sans-serif" font-size="31" font-weight="900" letter-spacing="-.9">ANME LearnOps</text>
  <text x="124" y="70" fill="#64748b" font-family="Inter, ui-sans-serif, system-ui, -apple-system, BlinkMacSystemFont, 'Segoe UI', sans-serif" font-size="13" font-weight="800" letter-spacing="2.3">TRAINING COMMERCE SUITE</text>
</svg>
